<svg xmlns="http://www.w3.org/2000/svg" xmlns:xlink="http://www.w3.org/1999/xlink" width="100.52" height="68.33" viewBox="0 0 100.52 68.33">
  <defs>
    <filter id="Exclusion_15" x="0" y="0" width="100.52" height="68.33" filterUnits="userSpaceOnUse">
      <feOffset dx="1" dy="1" input="SourceAlpha"/>
      <feGaussianBlur stdDeviation="0.5" result="blur"/>
      <feFlood flood-opacity="0.361"/>
      <feComposite operator="in" in2="blur"/>
      <feComposite in="SourceGraphic"/>
    </filter>
  </defs>
  <g transform="matrix(1, 0, 0, 1, 0, 0)" filter="url(#Exclusion_15)">
    <path id="Exclusion_15-2" data-name="Exclusion 15" d="M73.752,65.33H21.88a3.528,3.528,0,0,1-1.076-.17A23.5,23.5,0,1,1,47.242,41.837a23.307,23.307,0,0,1-6.547,16.227H70.712a19.837,19.837,0,0,0,14.416-6.158,18.471,18.471,0,0,0,5.044-14.023A18.8,18.8,0,0,0,75.7,20.782a25.946,25.946,0,0,1-8.08,24.807,3.476,3.476,0,0,1-2.329.89,3.545,3.545,0,0,1-2.416-.944,3.6,3.6,0,0,1-.632-.683l-4.734-6.734a3.6,3.6,0,0,1,.895-5.024,3.638,3.638,0,0,1,5.052.89l2.1,2.982a18.857,18.857,0,0,0-.18-21.837A19.109,19.109,0,0,0,44.087,8.194l2.629,3.741a3.439,3.439,0,0,1-2.829,5.4,3.468,3.468,0,0,1-2.832-1.467L36.161,8.91a3.21,3.21,0,0,1-.324-.591L35.819,8.3a3.326,3.326,0,0,1,1.046-4.839A26.423,26.423,0,0,1,71.3,10.882c.485.67.95,1.385,1.383,2.128A26.173,26.173,0,0,1,73.752,65.2v.126ZM23.621,25.608A16.228,16.228,0,1,0,39.937,41.837,16.29,16.29,0,0,0,23.621,25.608Z" transform="translate(0.5 0.5)" fill="#fff"/>
  </g>
</svg>
