<svg xmlns="http://www.w3.org/2000/svg" xmlns:xlink="http://www.w3.org/1999/xlink" width="237.282" height="68.073" viewBox="0 0 237.282 68.073">
  <defs>
    <filter id="Exclusion_12" x="0" y="0.49" width="98.888" height="67.583" filterUnits="userSpaceOnUse">
      <feOffset dx="1" dy="1" input="SourceAlpha"/>
      <feGaussianBlur stdDeviation="0.5" result="blur"/>
      <feFlood flood-opacity="0.361"/>
      <feComposite operator="in" in2="blur"/>
      <feComposite in="SourceGraphic"/>
    </filter>
  </defs>
  <g id="Group_4899" data-name="Group 4899" transform="translate(-199.5 -1159)">
    <g id="Group_4865" data-name="Group 4865" transform="translate(-85.631 894.062)">
      <g transform="matrix(1, 0, 0, 1, 285.13, 264.94)" filter="url(#Exclusion_12)">
        <path id="Exclusion_12-2" data-name="Exclusion 12" d="M72.518,64.583h-51a3.452,3.452,0,0,1-1.058-.168A23.232,23.232,0,1,1,40.014,57.4H69.529A19.455,19.455,0,0,0,83.7,51.313a18.318,18.318,0,0,0,4.96-13.862A18.559,18.559,0,0,0,74.438,20.544a25.733,25.733,0,0,1-7.945,24.523,3.407,3.407,0,0,1-2.29.88,3.475,3.475,0,0,1-2.376-.933,3.556,3.556,0,0,1-.621-.675l-4.655-6.657A3.567,3.567,0,1,1,62.4,33.594l2.061,2.948A18.693,18.693,0,0,0,43.35,8.1l2.585,3.7a3.4,3.4,0,1,1-5.567,3.893L35.556,8.808a3.179,3.179,0,0,1-.319-.585L35.22,8.2a3.3,3.3,0,0,1,1.028-4.783A25.886,25.886,0,0,1,70.11,10.758c.477.662.934,1.37,1.36,2.1a25.882,25.882,0,0,1,1.047,51.6v.124ZM23.226,25.315A16.042,16.042,0,1,0,39.268,41.358,16.061,16.061,0,0,0,23.226,25.315Z" transform="translate(0.5 0.99)" fill="#526c7c"/>
      </g>
      <path id="Path_2762" data-name="Path 2762" d="M16.48-1.743A15.423,15.423,0,0,1,8.988-3.563,13.411,13.411,0,0,1,3.745-8.59a13.946,13.946,0,0,1-1.9-7.238,13.836,13.836,0,0,1,1.917-7.238,13.551,13.551,0,0,1,5.262-5.027,15.423,15.423,0,0,1,7.492-1.819,15.627,15.627,0,0,1,6.142,1.174,12.528,12.528,0,0,1,4.695,3.4L24.07-22.244a9.584,9.584,0,0,0-7.316-3.208,10.258,10.258,0,0,0-5.047,1.232A8.878,8.878,0,0,0,8.225-20.8a9.835,9.835,0,0,0-1.252,4.969,9.835,9.835,0,0,0,1.252,4.969,8.878,8.878,0,0,0,3.482,3.423A10.258,10.258,0,0,0,16.754-6.2,9.532,9.532,0,0,0,24.07-9.451l3.286,3.13a12.5,12.5,0,0,1-4.714,3.4A15.771,15.771,0,0,1,16.48-1.743Zm15.3-29.421h4.89V-2.135h-4.89Zm20.7,29.3A11.853,11.853,0,0,1,46.761-3.23,9.984,9.984,0,0,1,42.79-7.045a10.772,10.772,0,0,1-1.428-5.536A10.667,10.667,0,0,1,42.79-18.1a10.025,10.025,0,0,1,3.971-3.795,11.853,11.853,0,0,1,5.712-1.369,11.936,11.936,0,0,1,5.751,1.369A10.025,10.025,0,0,1,62.2-18.1a10.667,10.667,0,0,1,1.428,5.516A10.772,10.772,0,0,1,62.2-7.045,9.984,9.984,0,0,1,58.224-3.23,11.936,11.936,0,0,1,52.473-1.861Zm0-4.186a5.975,5.975,0,0,0,4.46-1.8,6.479,6.479,0,0,0,1.761-4.734,6.479,6.479,0,0,0-1.761-4.734,5.975,5.975,0,0,0-4.46-1.8,5.911,5.911,0,0,0-4.44,1.8,6.521,6.521,0,0,0-1.741,4.734,6.521,6.521,0,0,0,1.741,4.734A5.911,5.911,0,0,0,52.473-6.047ZM88.545-23.026V-2.135H83.889V-4.8a7.783,7.783,0,0,1-2.934,2.171,9.44,9.44,0,0,1-3.795.763,9.081,9.081,0,0,1-6.592-2.328q-2.406-2.328-2.406-6.905V-23.026h4.89v11.267a6.053,6.053,0,0,0,1.271,4.206,4.659,4.659,0,0,0,3.619,1.389,5.48,5.48,0,0,0,4.167-1.624,6.523,6.523,0,0,0,1.545-4.675V-23.026Zm26.878-8.138V-2.135h-4.695v-2.7a7.566,7.566,0,0,1-2.993,2.23,10.107,10.107,0,0,1-3.932.743,11.009,11.009,0,0,1-5.419-1.33,9.558,9.558,0,0,1-3.775-3.775,11.294,11.294,0,0,1-1.369-5.614,11.184,11.184,0,0,1,1.369-5.595,9.593,9.593,0,0,1,3.775-3.756,11.009,11.009,0,0,1,5.419-1.33,9.931,9.931,0,0,1,3.795.7,7.633,7.633,0,0,1,2.934,2.113v-10.72ZM104.389-6.047a6.29,6.29,0,0,0,3.169-.8,5.8,5.8,0,0,0,2.23-2.289,7,7,0,0,0,.822-3.443,7,7,0,0,0-.822-3.443,5.8,5.8,0,0,0-2.23-2.289,6.29,6.29,0,0,0-3.169-.8,6.29,6.29,0,0,0-3.169.8,5.8,5.8,0,0,0-2.23,2.289,7,7,0,0,0-.822,3.443,7,7,0,0,0,.822,3.443,5.8,5.8,0,0,0,2.23,2.289A6.29,6.29,0,0,0,104.389-6.047ZM3.843,8.484H14.285a15.1,15.1,0,0,1,6.973,1.557,11.443,11.443,0,0,1,4.726,4.372,12.35,12.35,0,0,1,1.681,6.46,12.35,12.35,0,0,1-1.681,6.46A11.443,11.443,0,0,1,21.259,31.7a15.1,15.1,0,0,1-6.973,1.557H3.843Zm10.23,21.7a11.464,11.464,0,0,0,5.292-1.168,8.444,8.444,0,0,0,3.522-3.274,9.419,9.419,0,0,0,1.239-4.867,9.419,9.419,0,0,0-1.239-4.867,8.444,8.444,0,0,0-3.522-3.274,11.464,11.464,0,0,0-5.292-1.168H7.383V30.183Zm26.548,3.292a10.173,10.173,0,0,1-5.026-1.239,8.984,8.984,0,0,1-3.487-3.416,9.7,9.7,0,0,1-1.257-4.938,9.7,9.7,0,0,1,1.257-4.938,8.86,8.86,0,0,1,3.487-3.4,10.918,10.918,0,0,1,10.035,0,8.893,8.893,0,0,1,3.469,3.4,9.7,9.7,0,0,1,1.257,4.938A9.7,9.7,0,0,1,49.1,28.82a9.018,9.018,0,0,1-3.469,3.416A10.073,10.073,0,0,1,40.621,33.475Zm0-2.973a6.334,6.334,0,0,0,3.239-.832,5.871,5.871,0,0,0,2.248-2.336,7.136,7.136,0,0,0,.814-3.451,7.136,7.136,0,0,0-.814-3.451,5.75,5.75,0,0,0-2.248-2.319,6.85,6.85,0,0,0-6.478,0,5.869,5.869,0,0,0-2.265,2.319,7.013,7.013,0,0,0-.832,3.451,7.013,7.013,0,0,0,.832,3.451,5.994,5.994,0,0,0,2.265,2.336A6.334,6.334,0,0,0,40.621,30.5Zm22.619,2.973a10.419,10.419,0,0,1-5.115-1.239A9.077,9.077,0,0,1,54.6,28.82a9.591,9.591,0,0,1-1.274-4.938A9.591,9.591,0,0,1,54.6,18.944a8.952,8.952,0,0,1,3.522-3.4,10.54,10.54,0,0,1,5.115-1.221,9.818,9.818,0,0,1,4.548,1.027,7.311,7.311,0,0,1,3.1,2.973L68.3,19.988a5.773,5.773,0,0,0-2.195-2.018,6.26,6.26,0,0,0-2.9-.673,6.711,6.711,0,0,0-3.31.814,5.8,5.8,0,0,0-2.3,2.319,7.013,7.013,0,0,0-.832,3.451,7.088,7.088,0,0,0,.832,3.487,5.8,5.8,0,0,0,2.3,2.319,6.711,6.711,0,0,0,3.31.814,6.26,6.26,0,0,0,2.9-.673A5.773,5.773,0,0,0,68.3,27.811l2.584,1.628a7.422,7.422,0,0,1-3.1,2.991A9.681,9.681,0,0,1,63.239,33.475Zm22.831-1.31a5.07,5.07,0,0,1-1.841.973,7.688,7.688,0,0,1-2.265.336,6.016,6.016,0,0,1-4.389-1.522A5.813,5.813,0,0,1,76.018,27.6V17.3H72.832V14.5h3.186V10.4h3.4V14.5H84.8v2.8h-5.38V27.457a3.3,3.3,0,0,0,.761,2.336,2.834,2.834,0,0,0,2.177.814,4.1,4.1,0,0,0,2.655-.885Zm11.5,1.31a10.173,10.173,0,0,1-5.026-1.239,8.984,8.984,0,0,1-3.487-3.416A9.7,9.7,0,0,1,87.8,23.882a9.7,9.7,0,0,1,1.257-4.938,8.861,8.861,0,0,1,3.487-3.4,10.918,10.918,0,0,1,10.035,0,8.893,8.893,0,0,1,3.469,3.4,9.7,9.7,0,0,1,1.257,4.938,9.7,9.7,0,0,1-1.257,4.938,9.018,9.018,0,0,1-3.469,3.416A10.073,10.073,0,0,1,97.575,33.475Zm0-2.973a6.334,6.334,0,0,0,3.239-.832,5.871,5.871,0,0,0,2.248-2.336,7.136,7.136,0,0,0,.814-3.451,7.136,7.136,0,0,0-.814-3.451,5.75,5.75,0,0,0-2.248-2.319,6.85,6.85,0,0,0-6.478,0,5.869,5.869,0,0,0-2.265,2.319,7.013,7.013,0,0,0-.832,3.451,7.013,7.013,0,0,0,.832,3.451,5.994,5.994,0,0,0,2.265,2.336A6.334,6.334,0,0,0,97.575,30.5Zm17.7-12.849a5.8,5.8,0,0,1,2.619-2.478,9.507,9.507,0,0,1,4.212-.85v3.292a6.635,6.635,0,0,0-.779-.035,5.717,5.717,0,0,0-4.336,1.646,6.516,6.516,0,0,0-1.575,4.69v9.345h-3.4V14.5h3.257Z" transform="translate(400.308 296.102)" fill="#526c7c"/>
    </g>
  </g>
</svg>
