<svg xmlns="http://www.w3.org/2000/svg" xmlns:xlink="http://www.w3.org/1999/xlink" width="36" height="36" viewBox="0 0 36 36">
  <defs>
    <linearGradient id="linear-gradient" x1="0.5" y1="-0.25" x2="0.5" y2="1" gradientUnits="objectBoundingBox">
      <stop offset="0" stop-color="#8fbedc"/>
      <stop offset="0.495" stop-color="#7177b2"/>
      <stop offset="1" stop-color="#5c3f91"/>
    </linearGradient>
  </defs>
  <g id="_location_on" data-name=" location_on" transform="translate(-372 -1303.746)">
    <rect id="Path" width="36" height="36" transform="translate(372 1303.746)" opacity="0" fill="url(#linear-gradient)"/>
    <path id="Icon" d="M10.433,29a1.481,1.481,0,0,1-1.14-.537A65.905,65.905,0,0,1,3.63,20.55C1.221,16.514,0,13.108,0,10.426A10.429,10.429,0,0,1,17.8,3.052a10.361,10.361,0,0,1,3.051,7.375c0,6.146-6.489,14.661-9.279,18.036A1.478,1.478,0,0,1,10.433,29ZM10.426,6.7a3.724,3.724,0,1,0,3.722,3.724A3.728,3.728,0,0,0,10.426,6.7Z" transform="translate(379.447 1306.979)" fill="url(#linear-gradient)"/>
  </g>
</svg>
