<svg xmlns="http://www.w3.org/2000/svg" width="17.812" height="17.812" viewBox="0 0 17.812 17.812">
  <path id="Path" d="M188.838,1233.12v1.716a1.968,1.968,0,0,1-2.053,1.983,16.848,16.848,0,0,1-15.756-15.756,1.968,1.968,0,0,1,1.983-2.053h1.715a1.985,1.985,0,0,1,1.973,1.755l.288,2.5a1.975,1.975,0,0,1-.565,1.626l-1.834,1.834a14.92,14.92,0,0,0,6.535,6.534l1.824-1.825a1.974,1.974,0,0,1,1.626-.565l2.518.287A1.966,1.966,0,0,1,188.838,1233.12Z" transform="translate(-171.026 -1219.01)" fill="#fff"/>
</svg>
