<svg xmlns="http://www.w3.org/2000/svg" width="24" height="24" viewBox="0 0 24 24">
  <g id="_location_on" data-name=" location_on" transform="translate(-372 -1303.746)">
    <rect id="Path" width="24" height="24" transform="translate(372 1303.746)" fill="#fff" opacity="0"/>
    <path id="Icon" d="M6.944,19.322a.985.985,0,0,1-.759-.358,43.912,43.912,0,0,1-3.769-5.272C.813,11,0,8.734,0,6.947a6.939,6.939,0,1,1,13.878,0c0,4.1-4.319,9.769-6.176,12.018A.983.983,0,0,1,6.944,19.322Zm0-14.857A2.481,2.481,0,1,0,9.417,6.947,2.483,2.483,0,0,0,6.94,4.466Z" transform="translate(376.976 1305.906)" fill="#fff"/>
  </g>
</svg>
