<svg xmlns="http://www.w3.org/2000/svg" width="24" height="24" viewBox="0 0 24 24">
  <g id="_email" data-name=" email" transform="translate(-780 -1216.303)">
    <rect id="Path" width="24" height="24" transform="translate(780 1216.303)" fill="#fff" opacity="0"/>
    <path id="Icon" d="M18.255,17.186H2.028A2.093,2.093,0,0,1,0,15.038L.01,2.148A2.088,2.088,0,0,1,2.028,0H18.255a2.093,2.093,0,0,1,2.028,2.148v12.89A2.093,2.093,0,0,1,18.255,17.186ZM2.889,2.88a.888.888,0,0,0-.861.912.933.933,0,0,0,.405.774L9.6,9.313a.979.979,0,0,0,1.075,0l7.17-4.748a.932.932,0,0,0,.406-.774.889.889,0,0,0-.861-.912.84.84,0,0,0-.458.139l-6.795,4.5-6.8-4.5A.838.838,0,0,0,2.889,2.88Z" transform="translate(781.858 1220.019)" fill="#fff"/>
  </g>
</svg>
